<svg width="22" height="22" class="" viewBox="0 0 22 22" fill="none" xmlns="http://www.w3.org/2000/svg"><path d="M5.75 10.5H10.75V5.5H12V10.5H17V11.75H12V16.75H10.75V11.75H5.75V10.5ZM4.5 0.5H18.25C19.2446 0.5 20.1984 0.895088 20.9017 1.59835C21.6049 2.30161 22 3.25544 22 4.25V18C22 18.9946 21.6049 19.9484 20.9017 20.6517C20.1984 21.3549 19.2446 21.75 18.25 21.75H4.5C3.50544 21.75 2.55161 21.3549 1.84835 20.6517C1.14509 19.9484 0.75 18.9946 0.75 18V4.25C0.75 3.25544 1.14509 2.30161 1.84835 1.59835C2.55161 0.895088 3.50544 0.5 4.5 0.5ZM4.5 1.75C3.83696 1.75 3.20107 2.01339 2.73223 2.48223C2.26339 2.95107 2 3.58696 2 4.25V18C2 18.663 2.26339 19.2989 2.73223 19.7678C3.20107 20.2366 3.83696 20.5 4.5 20.5H18.25C18.913 20.5 19.5489 20.2366 20.0178 19.7678C20.4866 19.2989 20.75 18.663 20.75 18V4.25C20.75 3.58696 20.4866 2.95107 20.0178 2.48223C19.5489 2.01339 18.913 1.75 18.25 1.75H4.5Z" fill="#0070FF"></path></svg>