<svg width="23" height="23" viewBox="0 0 23 23" fill="none" xmlns="http://www.w3.org/2000/svg" style="margin-left: -2px;"><path d="M11.5 20.09C16.2442 20.09 20.09 16.2442 20.09 11.5C20.09 6.75591 16.2442 2.91003 11.5 2.91003C6.75591 2.91003 2.91003 6.75591 2.91003 11.5C2.91003 16.2442 6.75591 20.09 11.5 20.09Z" stroke="black" stroke-width="1.5" stroke-miterlimit="10" stroke-linecap="square"></path><path d="M11.5 14.36C13.0795 14.36 14.36 13.0795 14.36 11.5C14.36 9.92048 13.0795 8.64001 11.5 8.64001C9.92048 8.64001 8.64001 9.92048 8.64001 11.5C8.64001 13.0795 9.92048 14.36 11.5 14.36Z" stroke="black" stroke-width="1.5" stroke-miterlimit="10" stroke-linecap="square"></path><path d="M11.5 4.82V1" stroke="black" stroke-width="1.5" stroke-miterlimit="10" stroke-linecap="square"></path><path d="M11.5 22.0001V18.1801" stroke="black" stroke-width="1.5" stroke-miterlimit="10" stroke-linecap="square"></path><path d="M4.82 11.5H1" stroke="black" stroke-width="1.5" stroke-miterlimit="10" stroke-linecap="square"></path><path d="M22.0001 11.5H18.1801" stroke="black" stroke-width="1.5" stroke-miterlimit="10" stroke-linecap="square"></path></svg>